<?xml version="1.0" standalone="no"?>
<!DOCTYPE svg PUBLIC "-//W3C//DTD SVG 20010904//EN"
 "http://www.w3.org/TR/2001/REC-SVG-20010904/DTD/svg10.dtd">
<svg version="1.0" xmlns="http://www.w3.org/2000/svg"
 width="700.000000pt" height="700.000000pt" viewBox="0 0 700.000000 700.000000"
 preserveAspectRatio="xMidYMid meet">
<metadata>
Created by potrace 1.11, written by Peter Selinger 2001-2013
</metadata>
<g transform="translate(0.000000,700.000000) scale(0.100000,-0.100000)"
fill="#000000" stroke="none">
<path d="M6377 6249 c-8 -13 -139 -238 -290 -500 -151 -262 -282 -488 -292
-502 l-17 -27 246 0 246 0 0 -1721 0 -1720 -117 1 c-304 3 -376 0 -366 -12 6
-7 22 -33 35 -58 14 -25 58 -101 98 -170 40 -68 81 -138 90 -155 37 -66 284
-492 301 -520 11 -16 22 -37 26 -45 3 -8 17 -32 31 -54 l24 -38 42 73 c168
292 279 483 296 511 11 18 33 58 50 88 17 30 40 71 51 90 46 76 169 290 169
292 0 2 -109 2 -242 0 l-243 -3 1 1713 c1 942 2 1716 3 1720 0 4 76 8 169 7
92 0 200 0 239 1 l72 0 -28 48 c-15 26 -39 68 -53 93 -14 24 -133 231 -265
459 -132 228 -244 424 -250 434 -10 18 -11 18 -26 -5z"/>
<path d="M2456 6080 c-8 -19 -33 -82 -56 -140 -22 -58 -45 -114 -50 -125 -5
-11 -52 -130 -105 -265 -53 -135 -100 -254 -105 -265 -11 -23 -100 -245 -104
-260 -2 -5 -8 -23 -15 -40 -7 -16 -37 -93 -68 -170 -243 -614 -351 -885 -412
-1040 -39 -99 -76 -188 -81 -197 -6 -10 -10 -23 -10 -29 0 -6 -7 -25 -14 -42
-8 -18 -60 -147 -116 -287 -55 -140 -105 -264 -110 -275 -5 -11 -48 -119 -95
-240 -48 -121 -107 -272 -132 -335 -25 -63 -49 -124 -54 -135 -4 -11 -34 -83
-64 -160 -186 -466 -382 -741 -610 -853 -80 -40 -153 -59 -228 -61 l-27 -1 2
-217 3 -218 872 0 873 0 0 218 0 217 -42 1 c-44 0 -100 5 -178 13 -56 6 -143
32 -191 57 -123 62 -166 225 -113 420 22 79 91 276 114 324 5 11 23 56 40 100
l31 80 814 0 c448 0 816 -3 818 -5 2 -3 16 -39 31 -80 16 -41 71 -182 122
-312 98 -249 113 -297 114 -364 0 -50 -40 -130 -81 -162 -55 -44 -192 -69
-389 -71 l-55 -1 -1 -213 c0 -116 3 -214 7 -217 6 -4 2578 -5 2614 -1 9 1 13
417 4 425 -2 2 -24 6 -49 9 -139 17 -315 95 -397 177 -93 93 -202 271 -288
470 -21 47 -47 108 -60 135 -12 28 -59 142 -105 255 -45 113 -88 219 -95 235
-7 17 -46 111 -85 210 -39 99 -78 194 -85 210 -7 17 -26 64 -43 105 -82 205
-313 776 -377 935 -40 99 -156 387 -259 640 -102 253 -273 678 -381 945 -108
267 -210 519 -226 560 l-30 75 -229 0 -228 0 -16 -35z m-131 -2185 c47 -115
92 -223 100 -240 20 -46 435 -1045 435 -1048 0 -1 -287 -2 -637 -2 -574 0
-638 2 -635 16 1 8 51 139 111 290 196 493 418 1052 461 1163 l43 109 17 -39
c10 -21 57 -133 105 -249z"/>
</g>
</svg>
