<?xml version="1.0" standalone="no"?>
<!DOCTYPE svg PUBLIC "-//W3C//DTD SVG 20010904//EN"
 "http://www.w3.org/TR/2001/REC-SVG-20010904/DTD/svg10.dtd">
<svg version="1.0" xmlns="http://www.w3.org/2000/svg"
 width="700.000000pt" height="700.000000pt" viewBox="0 0 700.000000 700.000000"
 preserveAspectRatio="xMidYMid meet">
<metadata>
Created by potrace 1.11, written by Peter Selinger 2001-2013
</metadata>
<g transform="translate(0.000000,700.000000) scale(0.100000,-0.100000)"
fill="#000000" stroke="none">
<path d="M3200 6989 c-916 -67 -1759 -415 -2465 -1018 -114 -98 -375 -356
-375 -372 0 -13 3132 -5589 3140 -5589 5 0 3093 5487 3129 5560 14 28 12 30
-50 101 -133 149 -400 382 -620 540 -796 570 -1785 848 -2759 778z m-555
-1069 c123 -38 202 -87 296 -180 73 -73 94 -101 132 -180 102 -211 102 -409 0
-620 -38 -79 -59 -107 -132 -180 -221 -219 -519 -269 -801 -133 -79 38 -108
59 -181 132 -73 73 -94 102 -132 181 -50 103 -77 213 -77 310 0 97 27 207 77
310 38 79 59 108 132 181 73 73 102 94 181 132 52 25 127 53 165 61 95 21 247
15 340 -14z m1057 -2103 c115 -37 203 -91 289 -176 217 -217 267 -521 132
-801 -82 -169 -248 -308 -438 -366 -84 -25 -286 -25 -370 0 -190 58 -356 197
-438 366 -106 220 -100 444 18 657 71 128 226 258 365 309 143 51 305 55 442
11z"/>
</g>
</svg>
