<?xml version="1.0" encoding="utf-8"?>
<!-- Generator: Adobe Illustrator 16.0.0, SVG Export Plug-In . SVG Version: 6.00 Build 0)  -->
<!DOCTYPE svg PUBLIC "-//W3C//DTD SVG 1.1//EN" "http://www.w3.org/Graphics/SVG/1.1/DTD/svg11.dtd">
<svg version="1.1" id="Layer_1" xmlns="http://www.w3.org/2000/svg" xmlns:xlink="http://www.w3.org/1999/xlink" x="0px" y="0px"
	 width="361px" height="343px" viewBox="0 0 361 343" enable-background="new 0 0 361 343" xml:space="preserve">
<path fill-rule="evenodd" clip-rule="evenodd" fill="#FFFFFF" d="M-173-141c0,24.667,0,49.333,0,74c-103,0-206,0-309,0
	c0-103,0-206,0-309c103,0,206,0,309,0c0,25.333,0,50.667,0,76c-0.98-1.255-2.123-2.415-2.916-3.778
	c-7.523-12.916-14.986-25.866-22.91-39.573c-9.162,15.869-17.987,31.153-27.312,47.303c7.934,0,14.685,0,21.694,0
	c0,50.524,0,100.579,0,151.337c-7.08,0-13.9,0-21.581,0c9.31,16.104,18.09,31.294,27.208,47.067
	c6.25-10.828,12.004-20.925,17.896-30.938C-178.433-132.812-175.649-136.866-173-141z M-242.178-117.117
	c-14.503-0.901-23.158-9.392-28.923-21.64c-2.054-4.362-4.236-8.677-6.044-13.141c-22.851-56.424-45.641-112.871-68.457-169.309
	c-1.931-4.777-2.69-11.426-6.252-13.764c-3.783-2.482-10.27-0.707-15.555-1.085c-3.458-0.247-5.239,0.798-6.598,4.257
	c-17.272,43.965-34.681,87.876-52.171,131.754c-7.512,18.845-14.737,37.836-23.143,56.282c-6.135,13.462-14.897,25.075-31.421,26.86
	c0,6.429,0,12.643,0,18.67c25.829,0,51.231,0,76.583,0c0-6.5,0-12.598,0-18.608c-4.131-0.489-7.981-0.691-11.722-1.438
	c-9.712-1.936-14.07-8.354-11.481-17.891c2.084-7.677,5.082-15.118,7.954-22.556c0.413-1.069,2.392-2.172,3.652-2.18
	c21.996-0.132,43.992-0.133,65.987,0.005c1.259,0.008,3.195,1.165,3.654,2.27c3.568,8.596,7.088,17.228,10.151,26.013
	c2.818,8.083-0.613,13.294-9.147,14.532c-4.219,0.611-8.49,0.869-12.724,1.286c0,6.415,0,12.487,0,18.621
	c38.716,0,77.099,0,115.657,0C-242.178-104.479-242.178-110.438-242.178-117.117z"/>
<path fill-rule="evenodd" clip-rule="evenodd" fill="#FFFFFF" d="M-173-145c-6.467,0-12.932,0-19.782,0c0-50.261,0-100.384,0-151
	c6.608,0,13.195,0,19.782,0C-173-245.667-173-195.333-173-145z"/>
<g>
	<path fill-rule="evenodd" clip-rule="evenodd" d="M334.371,250.998c-2.649,4.134-5.433,8.188-7.92,12.417
		c-5.893,10.014-11.646,20.11-17.896,30.938c-9.118-15.773-17.898-30.964-27.208-47.067c7.681,0,14.501,0,21.581,0
		c0-50.758,0-100.813,0-151.337c-7.01,0-13.761,0-21.694,0c9.324-16.149,18.149-31.434,27.312-47.303
		c7.924,13.707,15.387,26.657,22.91,39.573c0.793,1.363,1.936,2.523,2.916,3.778c0,1.333,0,2.667,0,4c-6.587,0-13.174,0-19.782,0
		c0,50.616,0,100.739,0,151c6.851,0,13.315,0,19.782,0C334.371,248.331,334.371,249.665,334.371,250.998z"/>
	<path fill-rule="evenodd" clip-rule="evenodd" d="M265.193,274.881c0,6.679,0,12.639,0,18.94c-38.559,0-76.941,0-115.657,0
		c0-6.134,0-12.206,0-18.621c4.233-0.417,8.504-0.675,12.724-1.286c8.534-1.238,11.965-6.449,9.147-14.532
		c-3.063-8.785-6.583-17.417-10.151-26.013c-0.458-1.104-2.395-2.262-3.653-2.27c-21.995-0.138-43.992-0.137-65.987-0.005
		c-1.261,0.008-3.24,1.11-3.652,2.18c-2.872,7.438-5.87,14.879-7.954,22.556c-2.589,9.536,1.77,15.955,11.481,17.891
		c3.741,0.746,7.591,0.948,11.722,1.438c0,6.011,0,12.108,0,18.608c-25.352,0-50.754,0-76.583,0c0-6.027,0-12.241,0-18.67
		c16.524-1.785,25.287-13.398,31.422-26.86c8.405-18.446,15.63-37.438,23.143-56.282c17.49-43.878,34.899-87.789,52.171-131.754
		c1.359-3.459,3.14-4.504,6.598-4.257c5.285,0.378,11.772-1.397,15.555,1.085c3.563,2.338,4.321,8.986,6.253,13.764
		c22.816,56.438,45.606,112.885,68.457,169.309c1.808,4.464,3.99,8.778,6.044,13.141
		C242.035,265.489,250.69,273.979,265.193,274.881z M152.405,210.781c-9.554-22.954-18.938-45.501-28.763-69.107
		c-9.378,23.683-18.322,46.271-27.365,69.107C115.264,210.781,133.52,210.781,152.405,210.781z"/>
</g>
<path fill-rule="evenodd" clip-rule="evenodd" fill="#FFFFFF" d="M-354.966-181.217c-18.886,0-37.142,0-56.127,0
	c9.043-22.836,17.987-45.425,27.365-69.107C-373.903-226.718-364.52-204.171-354.966-181.217z"/>
</svg>
